<?xml version="1.0" standalone="no"?>
<!DOCTYPE svg PUBLIC "-//W3C//DTD SVG 20010904//EN"
 "http://www.w3.org/TR/2001/REC-SVG-20010904/DTD/svg10.dtd">
<svg version="1.0" xmlns="http://www.w3.org/2000/svg"
 width="512.000000pt" height="512.000000pt" viewBox="0 0 512.000000 512.000000"
 preserveAspectRatio="xMidYMid meet">

<g transform="translate(0.000000,512.000000) scale(0.100000,-0.100000)"
fill="#000000" stroke="none">
<path d="M2907 4801 c13 -152 -42 -292 -166 -424 -42 -44 -152 -142 -246 -217
-186 -150 -286 -248 -331 -325 -26 -45 -29 -59 -29 -135 0 -78 3 -91 37 -157
21 -39 59 -98 84 -130 55 -69 241 -260 267 -274 21 -12 -1 26 -100 168 -35 50
-78 122 -96 160 -29 61 -32 77 -32 158 0 81 3 97 32 155 40 82 116 166 246
273 232 192 355 364 389 547 12 65 4 132 -23 206 -29 77 -39 75 -32 -5z"/>
<path d="M3125 4171 c-510 -195 -678 -473 -464 -768 102 -141 103 -142 107
-203 5 -68 -9 -118 -46 -162 -22 -26 -23 -29 -6 -20 88 47 187 166 205 246 16
75 1 124 -68 223 -85 121 -107 169 -107 233 0 38 7 69 23 100 38 72 160 182
323 291 83 54 146 99 142 99 -5 0 -54 -18 -109 -39z"/>
<path d="M3407 3109 c-21 -5 -47 -15 -57 -22 -14 -10 -3 -12 70 -12 78 0 90
-3 127 -28 122 -84 113 -238 -21 -372 -50 -50 -167 -135 -234 -169 -56 -29
-30 -28 61 3 260 88 411 228 411 381 0 162 -167 264 -357 219z"/>
<path d="M2025 3079 c-130 -19 -365 -100 -400 -139 -27 -30 -15 -53 38 -72
229 -85 922 -84 1344 1 64 13 111 30 155 56 57 33 60 36 28 31 -506 -79 -1162
-99 -1310 -40 -22 9 -40 22 -40 29 0 31 78 71 225 116 95 29 81 35 -40 18z"/>
<path d="M1965 2683 c-129 -66 -126 -121 8 -171 107 -40 238 -56 462 -55 227
0 350 14 550 58 107 24 166 45 125 45 -8 0 -37 15 -65 34 l-50 35 -110 -19
c-240 -40 -457 -50 -688 -29 -136 12 -190 30 -195 67 -2 13 4 32 14 43 23 25
9 23 -51 -8z"/>
<path d="M2050 2329 c-60 -27 -80 -47 -80 -79 0 -50 76 -97 212 -131 115 -29
401 -37 543 -15 97 15 241 52 307 79 l33 14 -85 43 -85 43 -105 -17 c-261 -44
-669 -25 -704 33 -4 6 -2 20 4 31 13 24 15 24 -40 -1z"/>
<path d="M1620 2090 c-140 -36 -280 -120 -280 -166 0 -21 40 -53 79 -64 54
-16 266 -47 446 -67 233 -25 840 -25 1050 0 499 61 790 177 684 273 -20 18
-20 18 -14 -8 30 -121 -440 -202 -1165 -202 -430 0 -690 28 -835 88 -42 18
-46 46 -9 75 28 22 153 65 229 80 49 9 49 9 -30 9 -48 1 -110 -7 -155 -18z"/>
<path d="M3746 1891 c-63 -70 -358 -156 -671 -195 -319 -41 -876 -46 -1150
-12 -65 8 -121 14 -122 12 -7 -7 117 -37 211 -51 356 -53 965 -41 1312 26 242
46 403 124 433 209 12 35 10 37 -13 11z"/>
<path d="M1514 1502 l-72 -3 -4 -502 c-4 -499 -4 -502 -27 -554 -22 -49 -73
-106 -116 -131 -17 -9 -16 -13 14 -51 18 -22 36 -41 39 -41 4 0 30 13 57 29
72 41 132 106 157 171 22 53 23 67 26 510 2 250 2 482 0 515 l-3 60 -71 -3z"/>
<path d="M1900 1235 c-36 -7 -83 -20 -106 -29 l-41 -17 10 -43 10 -43 61 19
c36 12 93 20 141 21 131 2 175 -36 175 -153 l0 -60 -77 0 c-144 0 -264 -43
-317 -113 -37 -49 -52 -125 -38 -188 25 -105 85 -148 208 -149 81 0 135 16
198 59 47 33 56 29 56 -25 0 -23 3 -24 61 -24 l61 0 -4 298 c-3 280 -4 300
-25 344 -47 103 -185 141 -373 103z m248 -492 l-3 -97 -63 -33 c-88 -46 -142
-45 -188 1 -30 30 -34 40 -34 89 0 98 58 136 208 137 l83 0 -3 -97z"/>
<path d="M3308 1236 c-32 -7 -77 -21 -101 -30 l-44 -17 10 -43 10 -43 61 19
c36 12 93 20 141 21 130 2 175 -36 175 -151 l0 -59 -107 -5 c-220 -11 -327
-92 -327 -248 0 -128 61 -192 191 -199 90 -4 148 11 210 55 51 36 63 33 63
-18 0 -27 1 -28 60 -28 l60 0 0 270 c0 154 -5 290 -11 319 -24 114 -93 162
-242 167 -53 2 -116 -2 -149 -10z m250 -493 l-3 -97 -63 -33 c-88 -46 -142
-45 -188 1 -30 30 -34 40 -34 89 0 98 58 136 208 137 l83 0 -3 -97z"/>
<path d="M2405 1218 c4 -13 55 -180 114 -373 l108 -350 94 -3 94 -2 29 67 c75
176 170 492 191 636 l7 47 -75 0 -75 0 -7 -42 c-13 -88 -37 -205 -56 -278 -22
-81 -81 -272 -86 -279 -7 -9 -15 9 -24 51 -5 24 -44 157 -86 296 l-77 252 -78
0 c-76 0 -78 -1 -73 -22z"/>
</g>
</svg>
